<?xml version="1.0" encoding="UTF-8" standalone="no"?>
<!-- Created with Inkscape (http://www.inkscape.org/) -->

<svg
   xmlns:dc="http://purl.org/dc/elements/1.1/"
   xmlns:cc="http://creativecommons.org/ns#"
   xmlns:rdf="http://www.w3.org/1999/02/22-rdf-syntax-ns#"
   xmlns:svg="http://www.w3.org/2000/svg"
   xmlns="http://www.w3.org/2000/svg"
   xmlns:xlink="http://www.w3.org/1999/xlink"
   xmlns:sodipodi="http://sodipodi.sourceforge.net/DTD/sodipodi-0.dtd"
   xmlns:inkscape="http://www.inkscape.org/namespaces/inkscape"
   id="Andysvg"
   inkscape:export-ydpi="90"
   viewBox="0 0 160 160"
   inkscape:export-xdpi="90"
   version="1.0"
   inkscape:output_extension="org.inkscape.output.svg.inkscape"
   sodipodi:docname="nodes.svg"
   inkscape:export-filename="C:\Documents and Settings\All Users\Documents\Ubuntu Brig\Andy Fitzsimon\gnome-fs-network.png"
   inkscape:version="0.92.3 (2405546, 2018-03-11)"
   sodipodi:version="0.32"
   y="0"
   x="0">
  <defs
     id="defs3">
    <linearGradient
       id="linearGradient1133">
      <stop
         id="stop1134"
         style="stop-color:#8bb7df"
         offset="0" />
      <stop
         id="stop1136"
         style="stop-color:#2a6092"
         offset=".76209" />
      <stop
         id="stop1135"
         style="stop-color:#375e82"
         offset="1" />
    </linearGradient>
    <linearGradient
       id="linearGradient892">
      <stop
         id="stop893"
         style="stop-color:#ffffff;stop-opacity:0"
         offset="0" />
      <stop
         id="stop894"
         style="stop-color:#fff"
         offset="1" />
    </linearGradient>
    <linearGradient
       id="linearGradient888">
      <stop
         id="stop889"
         style="stop-color:#626262"
         offset="0" />
      <stop
         id="stop890"
         style="stop-color:#fff"
         offset="1" />
    </linearGradient>
    <linearGradient
       id="linearGradient891"
       y2="1.0899"
       xlink:href="#linearGradient888"
       y1="-.85185"
       x2=".024648"
       x1="1.3486" />
    <linearGradient
       id="linearGradient901"
       y2="-.38571"
       xlink:href="#linearGradient888"
       y1="2.4286"
       x2=".14118"
       x1="1.5804" />
    <linearGradient
       id="linearGradient905"
       y2="-.19531"
       xlink:href="#linearGradient888"
       y1="2.7891"
       x2="1.0909"
       x1="-1.539" />
    <radialGradient
       id="radialGradient1132"
       xlink:href="#linearGradient1133"
       cy=".09375"
       cx=".10363"
       r="1.2959" />
    <linearGradient
       id="linearGradient1141"
       y2="-.44531"
       xlink:href="#linearGradient888"
       y1="3.0547"
       x2="-.0088106"
       x1="1.8282" />
    <linearGradient
       id="linearGradient1146"
       y2="1.1875"
       xlink:href="#linearGradient892"
       y1=".55469"
       x2="-.076577"
       x1=".51351" />
    <linearGradient
       id="linearGradient1148"
       y2="-.64844"
       xlink:href="#linearGradient892"
       y1=".15625"
       x2="1.0789"
       x1=".23246" />
    <linearGradient
       id="linearGradient1150"
       y2="1.4766"
       xlink:href="#linearGradient892"
       y1=".57812"
       x2="-.57522"
       x1=".25221" />
    <linearGradient
       id="linearGradient1156"
       y2="1.875"
       xlink:href="#linearGradient888"
       y1="-0.4"
       x2=".48261"
       x1=".48261" />
    <linearGradient
       id="linearGradient1157"
       y2="-.48980"
       xlink:href="#linearGradient888"
       y1="3.3265"
       x2="-1.2077"
       x1="1.5528" />
    <radialGradient
       id="radialGradient1315"
       fx=".090674"
       fy=".10938"
       xlink:href="#linearGradient1133"
       cy=".09375"
       cx=".088083"
       r="1.1766" />
  </defs>
  <sodipodi:namedview
     id="base"
     bordercolor="#666666"
     inkscape:pageshadow="2"
     inkscape:window-width="601"
     pagecolor="#ffffff"
     inkscape:zoom="2"
     inkscape:window-x="1335"
     showgrid="false"
     borderopacity="1.0"
     inkscape:current-layer="Andysvg"
     inkscape:cx="62.122256"
     inkscape:cy="81.091465"
     inkscape:window-y="155"
     inkscape:window-height="637"
     showborder="true"
     inkscape:pageopacity="0.0"
     inkscape:window-maximized="0" />
  <path
     id="path3723"
     sodipodi:nodetypes="ccc"
     style="stroke-linejoin:round;stroke:#9c9c9c;stroke-linecap:round;stroke-width:5.7185;fill:none"
     d="m26.564 83.75v37.66h31.192" />
  <g
     id="g2843"
     transform="matrix(.99938 0 0 .99938 .0012279 3.9865)">
    <rect
       id="rect1906"
       style="fill-rule:evenodd;stroke:url(#linearGradient1157);stroke-width:1.4473pt;fill:url(#linearGradient1156)"
       transform="matrix(.71622 0 0 .71622 -12.571 -9.6528)"
       height="8.3154"
       width="57.568"
       y="78.658"
       x="33.326" />
    <rect
       id="rect1907"
       style="fill-rule:evenodd;stroke-width:1.6283;fill:url(#linearGradient905)"
       rx="5.437"
       ry="5.437"
       transform="matrix(.71622 0 0 .71622 -12.571 -9.6528)"
       width="72.28"
       y="22.414"
       x="26.015"
       height="60.126" />
    <rect
       id="rect1908"
       style="fill-rule:evenodd;stroke:url(#linearGradient891);stroke-width:1.4649pt;fill:url(#radialGradient1315)"
       transform="matrix(.71622 0 0 .71622 -12.571 -9.6528)"
       height="38.044"
       width="58.178"
       y="31.696"
       x="33.386" />
    <path
       id="path1909"
       sodipodi:nodetypes="czzccccc"
       style="fill-rule:evenodd;stroke-width:1pt;fill:url(#linearGradient1146)"
       d="m27.69 52.841l-0.319 21.908c-0.051 3.493 1.939 5.729 5.437 5.757l39.817 0.32 3.838-8.955-44.455-0.32-0.32-18.869-3.998 0.159z"
       transform="matrix(.71622 0 0 .71622 -12.571 -9.6528)" />
    <rect
       id="rect1913"
       style="fill-rule:evenodd;stroke:url(#linearGradient1157);stroke-width:2.3625;fill:url(#linearGradient901)"
       rx="7.445"
       ry="7.445"
       transform="matrix(.57158 0 0 .57158 -77.726 72.355)"
       width="104.1"
       y="-34.317"
       x="140.62"
       height="26.147" />
    <rect
       id="rect1914"
       style="fill-rule:evenodd;stroke:url(#linearGradient1157);stroke-width:1.3591;fill:url(#linearGradient901)"
       rx="3.7576"
       ry="3.7576"
       transform="matrix(.57158 0 0 .57158 -77.726 72.355)"
       width="56.909"
       y="-28.54"
       x="184.05"
       height="15.83" />
    <rect
       id="rect1915"
       style="fill-rule:evenodd;stroke:url(#linearGradient1157);stroke-width:.96250;fill:url(#linearGradient1141)"
       rx="2.9971"
       ry="2.9971"
       transform="matrix(.57158 0 0 .57158 -77.726 72.355)"
       width="28.797"
       y="-28.227"
       x="145.29"
       height="15.83" />
    <rect
       id="rect1916"
       style="fill-rule:evenodd;stroke-width:.46326;fill-opacity:.13836"
       rx="1.6814"
       ry="1.6814"
       transform="matrix(.57158 0 0 .57158 -77.726 72.355)"
       width="49.231"
       y="-21.681"
       x="187.88"
       height="3.3628" />
  </g>
  <g
     id="g2852"
     transform="matrix(1.0189 0 0 1.0189 -4.4816 2.1312)">
    <rect
       id="rect1866"
       style="fill-rule:evenodd;stroke:url(#linearGradient1157);stroke-width:1.4473pt;fill:url(#linearGradient1156)"
       transform="matrix(1.1501 0 0 1.1501 38.989 26.869)"
       height="8.3154"
       width="57.568"
       y="78.658"
       x="33.326" />
    <rect
       id="rect1867"
       style="fill-rule:evenodd;stroke-width:1.6283;fill:url(#linearGradient905)"
       rx="5.437"
       ry="5.437"
       transform="matrix(1.1501 0 0 1.1501 38.989 26.869)"
       width="72.28"
       y="22.414"
       x="26.015"
       height="60.126" />
    <rect
       id="rect1868"
       style="fill-rule:evenodd;stroke:url(#linearGradient891);stroke-width:1.4649pt;fill:url(#radialGradient1132)"
       transform="matrix(1.1501 0 0 1.1501 38.989 26.869)"
       height="38.044"
       width="58.178"
       y="31.696"
       x="33.386" />
    <path
       id="path1869"
       sodipodi:nodetypes="czzccccc"
       style="fill-rule:evenodd;stroke-width:1pt;fill:url(#linearGradient1146)"
       d="m27.69 52.841l-0.319 21.908c-0.051 3.493 1.939 5.729 5.437 5.757l39.817 0.32 3.838-8.955-44.455-0.32-0.32-18.869-3.998 0.159z"
       transform="matrix(1.1501 0 0 1.1501 38.989 26.869)" />
    <g
       id="g1870"
       transform="matrix(1.1501 0 0 1.1501 38.989 26.869)">
      <path
         id="path1871"
         sodipodi:nodetypes="czzccc"
         style="fill-rule:evenodd;stroke-width:1pt;fill:url(#linearGradient1148)"
         d="m42.062 33.46l35.279-0.452c5.446-0.07 12.212 5.409 12.212 10.855v16.283l-47.943-0.452 0.452-26.234z" />
      <path
         id="path1872"
         sodipodi:nodetypes="czzccc"
         style="fill-rule:evenodd;stroke-width:1pt;fill:url(#linearGradient1150)"
         d="m78.338 67.629l-31.614 0.096c-4.88 0.014-10.895-4.954-10.847-9.834l0.143-14.589 42.954 0.826-0.636 23.501z" />
    </g>
    <rect
       id="rect1888"
       style="fill-rule:evenodd;stroke:url(#linearGradient1157);stroke-width:2.3625;fill:url(#linearGradient901)"
       rx="7.445"
       ry="7.445"
       transform="matrix(.91781 0 0 .91781 -65.633 158.55)"
       width="104.1"
       y="-34.317"
       x="140.62"
       height="26.147" />
    <rect
       id="rect1889"
       style="fill-rule:evenodd;stroke:url(#linearGradient1157);stroke-width:1.3591;fill:url(#linearGradient901)"
       rx="3.7576"
       ry="3.7576"
       transform="matrix(.91781 0 0 .91781 -65.633 158.55)"
       width="56.909"
       y="-28.54"
       x="184.05"
       height="15.83" />
    <rect
       id="rect1890"
       style="fill-rule:evenodd;stroke:url(#linearGradient1157);stroke-width:.96250;fill:url(#linearGradient1141)"
       rx="2.9971"
       ry="2.9971"
       transform="matrix(.91781 0 0 .91781 -65.633 158.55)"
       width="28.797"
       y="-28.227"
       x="145.29"
       height="15.83" />
    <rect
       id="rect1891"
       style="fill-rule:evenodd;stroke-width:.46326;fill-opacity:.16981"
       rx="1.6814"
       ry="1.6814"
       transform="matrix(.91781 0 0 .91781 -65.633 158.55)"
       width="49.231"
       y="-21.681"
       x="187.88"
       height="3.3628" />
  </g>
  <metadata
     id="metadata49">
    <rdf:RDF>
      <cc:Work>
        <dc:format>image/svg+xml</dc:format>
        <dc:type
           rdf:resource="http://purl.org/dc/dcmitype/StillImage" />
        <cc:license
           rdf:resource="http://creativecommons.org/licenses/publicdomain/" />
        <dc:publisher>
          <cc:Agent
             rdf:about="http://openclipart.org/">
            <dc:title>Openclipart</dc:title>
          </cc:Agent>
        </dc:publisher>
        <dc:title>Network</dc:title>
        <dc:date>2009-04-29T04:07:37</dc:date>
        <dc:description>A network icon by Andrew Fitzsimon. Etiquette Icon set. From 0.18 OCAL database.</dc:description>
        <dc:source>https://openclipart.org/detail/25428/network-by-anonymous-25428</dc:source>
        <dc:creator>
          <cc:Agent>
            <dc:title>Anonymous</dc:title>
          </cc:Agent>
        </dc:creator>
        <dc:subject>
          <rdf:Bag>
            <rdf:li>computer</rdf:li>
            <rdf:li>diagram</rdf:li>
            <rdf:li>etiquette</rdf:li>
            <rdf:li>gnome</rdf:li>
            <rdf:li>icon</rdf:li>
            <rdf:li>lan</rdf:li>
            <rdf:li>network</rdf:li>
          </rdf:Bag>
        </dc:subject>
      </cc:Work>
      <cc:License
         rdf:about="http://creativecommons.org/licenses/publicdomain/">
        <cc:permits
           rdf:resource="http://creativecommons.org/ns#Reproduction" />
        <cc:permits
           rdf:resource="http://creativecommons.org/ns#Distribution" />
        <cc:permits
           rdf:resource="http://creativecommons.org/ns#DerivativeWorks" />
      </cc:License>
    </rdf:RDF>
  </metadata>
</svg>
